<svg id="SvgjsSvg1012" width="288" height="288" xmlns="http://www.w3.org/2000/svg" version="1.1" xmlns:xlink="http://www.w3.org/1999/xlink" xmlns:svgjs="http://svgjs.com/svgjs"><defs id="SvgjsDefs1013"></defs><g id="SvgjsG1014"><svg xmlns="http://www.w3.org/2000/svg" enable-background="new 0 0 512 512" viewBox="0 0 512 512" width="288" height="288"><polygon fill="#00ab55" points="512 203.575 489.026 184.282 424.514 261.101 360.004 184.282 337.029 203.575 404.927 284.426 337.029 365.278 360.004 384.57 424.514 307.751 489.026 384.57 512 365.278 444.103 284.426" class="color00b8fa svgShape"></polygon><path fill="#007b55" d="M189.745,284.426c0-35.771,29.102-64.873,64.873-64.873l15-15l-15-15
	c-33.492,0-62.985,17.445-79.873,43.725c-16.888-26.28-46.381-43.725-79.873-43.725c-25.069,0-47.895,9.778-64.873,25.714V127.43H0
	v156.996c0,52.313,42.56,94.873,94.873,94.873c33.492,0,62.985-17.445,79.873-43.725c16.888,26.28,46.381,43.725,79.873,43.725
	l15-15l-15-15C218.847,349.299,189.745,320.198,189.745,284.426z M94.873,349.299c-35.771,0-64.873-29.101-64.873-64.873
	s29.102-64.873,64.873-64.873s64.873,29.102,64.873,64.873S130.644,349.299,94.873,349.299z" class="color5cd4ff svgShape"></path><path fill="#00ab55" d="M254.619,189.553v29.999c35.771,0,64.873,29.102,64.873,64.873s-29.102,64.873-64.873,64.873v29.999
	c52.313,0,94.873-42.56,94.873-94.873S306.931,189.553,254.619,189.553z" class="color00b8fa svgShape"></path></svg></g></svg>